<svg xmlns="http://www.w3.org/2000/svg" width="920" height="540" viewBox="0 0 920 540" role="img" aria-label="Firefox PDF viewer download button guide">
  <rect width="920" height="540" fill="#f8fafc"/>
  <rect x="36" y="34" width="848" height="472" rx="18" fill="#ffffff" stroke="#d8e0ea" stroke-width="2"/>
  <rect x="36" y="34" width="848" height="70" rx="18" fill="#fff1e8"/>
  <rect x="36" y="82" width="848" height="22" fill="#fff1e8"/>
  <circle cx="75" cy="69" r="18" fill="#ff7139"/>
  <text x="112" y="76" font-family="Arial, sans-serif" font-size="18" font-weight="800" fill="#0f172a">Firefox PDF viewer</text>
  <rect x="36" y="104" width="848" height="58" fill="#2b2a33"/>
  <text x="68" y="140" font-family="Arial, sans-serif" font-size="19" font-weight="700" fill="#ffffff">optimized-document.pdf</text>
  <g transform="translate(704 116)">
    <rect x="0" y="0" width="42" height="34" rx="7" fill="#3d3c45" stroke="#74717d"/>
    <path d="M21 7v13m0 0l-6-6m6 6l6-6M12 26h18" stroke="#ffffff" stroke-width="3" stroke-linecap="round" stroke-linejoin="round"/>
  </g>
  <g transform="translate(772 116)">
    <rect x="0" y="0" width="42" height="34" rx="7" fill="#3d3c45" stroke="#74717d"/>
    <path d="M13 14V8h16v6M13 24h16v-8H13v8zM10 16h22" stroke="#ffffff" stroke-width="3" stroke-linecap="round" stroke-linejoin="round"/>
  </g>
  <rect x="689" y="101" width="74" height="64" rx="12" fill="none" stroke="#16a34a" stroke-width="6"/>
  <path d="M704 184l21-25 21 25" fill="none" stroke="#16a34a" stroke-width="6" stroke-linecap="round" stroke-linejoin="round"/>
  <text x="575" y="226" font-family="Arial, sans-serif" font-size="26" font-weight="800" fill="#16a34a">Use the Download icon</text>
  <path d="M793 178l-12 32m0 0h25" fill="none" stroke="#dc2626" stroke-width="6" stroke-linecap="round" stroke-linejoin="round"/>
  <text x="584" y="270" font-family="Arial, sans-serif" font-size="20" font-weight="700" fill="#dc2626">Print can increase size</text>
  <rect x="174" y="190" width="360" height="270" rx="8" fill="#f1f5f9" stroke="#cbd5e1"/>
  <rect x="220" y="232" width="268" height="22" rx="5" fill="#cbd5e1"/>
  <rect x="220" y="280" width="268" height="18" rx="5" fill="#d8e0ea"/>
  <rect x="220" y="318" width="210" height="18" rx="5" fill="#d8e0ea"/>
  <rect x="220" y="356" width="250" height="18" rx="5" fill="#d8e0ea"/>
</svg>
