<svg xmlns="http://www.w3.org/2000/svg" width="920" height="540" viewBox="0 0 920 540" role="img" aria-label="Safari PDF viewer share save guide">
  <rect width="920" height="540" fill="#f8fafc"/>
  <rect x="36" y="34" width="848" height="472" rx="18" fill="#ffffff" stroke="#d8e0ea" stroke-width="2"/>
  <rect x="36" y="34" width="848" height="70" rx="18" fill="#eef6ff"/>
  <rect x="36" y="82" width="848" height="22" fill="#eef6ff"/>
  <circle cx="70" cy="68" r="8" fill="#ef4444"/>
  <circle cx="98" cy="68" r="8" fill="#f59e0b"/>
  <circle cx="126" cy="68" r="8" fill="#22c55e"/>
  <rect x="164" y="50" width="438" height="36" rx="18" fill="#ffffff" stroke="#cbd5e1"/>
  <text x="188" y="73" font-family="Arial, sans-serif" font-size="16" font-weight="700" fill="#334155">Safari PDF preview</text>
  <rect x="36" y="104" width="848" height="58" fill="#f8fafc" stroke="#d8e0ea"/>
  <text x="68" y="140" font-family="Arial, sans-serif" font-size="19" font-weight="700" fill="#0f172a">optimized-document.pdf</text>
  <g transform="translate(704 116)">
    <rect x="0" y="0" width="42" height="34" rx="7" fill="#ffffff" stroke="#94a3b8"/>
    <path d="M21 24V8m0 0l-6 6m6-6l6 6M13 26h16" stroke="#0052cc" stroke-width="3" stroke-linecap="round" stroke-linejoin="round"/>
  </g>
  <g transform="translate(772 116)">
    <rect x="0" y="0" width="42" height="34" rx="7" fill="#ffffff" stroke="#94a3b8"/>
    <path d="M13 14V8h16v6M13 24h16v-8H13v8zM10 16h22" stroke="#64748b" stroke-width="3" stroke-linecap="round" stroke-linejoin="round"/>
  </g>
  <rect x="689" y="101" width="74" height="64" rx="12" fill="none" stroke="#16a34a" stroke-width="6"/>
  <path d="M704 184l21-25 21 25" fill="none" stroke="#16a34a" stroke-width="6" stroke-linecap="round" stroke-linejoin="round"/>
  <text x="545" y="226" font-family="Arial, sans-serif" font-size="26" font-weight="800" fill="#16a34a">Use Share / Download</text>
  <path d="M793 178l-12 32m0 0h25" fill="none" stroke="#dc2626" stroke-width="6" stroke-linecap="round" stroke-linejoin="round"/>
  <text x="584" y="270" font-family="Arial, sans-serif" font-size="20" font-weight="700" fill="#dc2626">Do not print to save</text>
  <rect x="174" y="190" width="360" height="270" rx="8" fill="#f1f5f9" stroke="#cbd5e1"/>
  <rect x="220" y="232" width="268" height="22" rx="5" fill="#cbd5e1"/>
  <rect x="220" y="280" width="268" height="18" rx="5" fill="#d8e0ea"/>
  <rect x="220" y="318" width="210" height="18" rx="5" fill="#d8e0ea"/>
  <rect x="220" y="356" width="250" height="18" rx="5" fill="#d8e0ea"/>
</svg>
